<svg width="10" height="10" viewBox="0 0 10 10" fill="none" xmlns="http://www.w3.org/2000/svg">
<path d="M7.08358 6.22805C7.01638 6.3167 7.02559 6.45226 7.10667 6.53334L9.88126 9.30793C10.0396 9.46625 10.0396 9.72294 9.88126 9.88126C9.72294 10.0396 9.46625 10.0396 9.30793 9.88126L6.53334 7.10667C6.45339 7.02672 6.31644 7.0171 6.22712 7.08413C6.22712 7.08413 6.1936 7.11288 6.09083 7.18143C5.46916 7.59611 4.72227 7.83784 3.91892 7.83784C1.75456 7.83784 0 6.08328 0 3.91892C0 1.75456 1.75456 0 3.91892 0C6.08328 0 7.83784 1.75456 7.83784 3.91892C7.83784 4.72543 7.5942 5.47505 7.17652 6.09817C7.10938 6.19834 7.08358 6.22805 7.08358 6.22805ZM3.91892 7.02703C5.63548 7.02703 7.02703 5.63548 7.02703 3.91892C7.02703 2.20236 5.63548 0.810811 3.91892 0.810811C2.20236 0.810811 0.810811 2.20236 0.810811 3.91892C0.810811 5.63548 2.20236 7.02703 3.91892 7.02703Z" fill="black"/>
</svg>
